# xmcd CD database file
#
# Track frame offsets:
#	150
#	19864
#	40788
#	59225
#	74452
#	96061
#	115800
#	137166
#	157105
#	174003
#	193208
#	209225
#	226409
#	243806
#	260177
#
# Disc length: 3715 seconds
#
# Revision: 0
# Processed by: cddbd v1.5.2PL0 Copyright (c) Steve Scherf et al.
# Submitted via: CDex 1.51
#
DISCID=e20e810f
DTITLE=龍千玉 - 錯愛
DYEAR=2006
DGENRE=Country
TTITLE0=錯愛
TTITLE1=雲罩月
TTITLE2=一生的愛
TTITLE3=用心交陪
TTITLE4=隨在天歡喜
TTITLE5=酒滲水
TTITLE6=進退兩難
TTITLE7=情人橋
TTITLE8=將你放袂記
TTITLE9=束縛
TTITLE10=張鳳鳳-鳳凰于飛
TTITLE11=小辣椒-愛情乎人想抹開
TTITLE12=林姍-情深甘是錯
TTITLE13=張蓉蓉-往事痛心肝
TTITLE14=向蕙玲-永遠攏同款
EXTD=YEAR: 2006
EXTT0=
EXTT1=
EXTT2=
EXTT3=
EXTT4=
EXTT5=
EXTT6=
EXTT7=
EXTT8=
EXTT9=
EXTT10=
EXTT11=
EXTT12=
EXTT13=
EXTT14=
PLAYORDER=
